<?xml version="1.0" encoding="utf-8" ?><svg xmlns="http://www.w3.org/2000/svg" xmlns:xlink="http://www.w3.org/1999/xlink" width="2048" height="1149" viewBox="0 0 2048 1149"><path fill="#FEFEFE" d="M0 22.0373L2048 22.0373L2048 1149L0 1149L0 22.0373Z"/><path fill="#1A3E33" d="M130.643 614.629C179.358 535.742 222.576 452.395 270.989 373.237C272.19 371.273 274.038 368.206 276.483 368.149C302.02 366.615 334.109 367.287 359.189 367.283L456.048 367.148C467.08 367.108 512.898 365.859 520 368.819C525.122 374.013 552.317 422.694 558.495 433.134L599.691 502.258C604.276 509.93 621.169 534.398 620.798 541.793C617.507 543.368 398.265 542.555 373.698 542.557C361.751 564.524 349.161 586.002 337.624 608.201C349.538 624.919 361.139 641.858 372.421 659.009C376.686 665.42 384.798 681.69 391.692 683.687C410.524 689.142 500.074 679.727 511.83 685.129C512.671 687.865 509.76 693.79 508.178 696.279C494.773 717.363 483.423 743.485 470.128 764.105L373.973 764.213C382.253 772.481 387.601 780.183 394.835 789.301C420.626 789.994 459.03 791.133 484.262 789.959C505.912 749.516 533.916 700.024 557.627 660.579L453.368 660.079C435.906 660.031 413.29 660.594 396.229 659.72C393.812 655.18 384.779 639.908 386.402 636.466C392.948 622.579 402.753 606.429 410.057 592.882C411.846 589.449 414.371 585.418 416.37 582.019L569.864 582.09C591.029 582.1 613.741 581.382 634.962 582.141C637.716 582.24 638.946 584.712 640.774 586.979C646.921 599.711 657.492 616.553 664.9 628.796C633.792 681.037 601.639 738.101 571.675 791.175C562.762 806.965 553.934 822.803 545.192 838.689C541.59 845.154 533.68 859.8 529.571 865.277C403.265 867.041 276.386 864.316 150.026 865.291C130.1 865.445 109.389 865.277 89.4663 864.671C94.3763 857.17 100.095 850.529 105.598 843.479C128.365 814.313 152.261 785.871 175.018 756.718C151.478 756.171 127.933 755.887 104.387 755.864L159.586 670.114C169.154 655.179 179.184 639.98 187.824 624.499C189.277 621.896 189.183 619.219 188.03 616.512C182.685 613.843 139.079 614.25 130.643 614.629Z"/><path fill="#1A3E33" d="M416.37 582.019L569.864 582.09C591.029 582.1 613.741 581.382 634.962 582.141C637.716 582.24 638.946 584.712 640.774 586.979C638.56 586.353 634.253 584.404 632.424 584.433C562.172 585.545 491.882 584.574 421.619 584.503C419.687 584.501 419.181 584.623 417.388 585.328C414.438 589.704 415.791 591.614 412.598 593.104L410.057 592.882C411.846 589.449 414.371 585.418 416.37 582.019Z"/><path fill="#FEFEFE" d="M434.572 608.446L624.468 608.345C627.82 614.512 636.459 627.835 632.811 634.392C626.158 646.352 618.441 658.993 611.429 670.716C601.721 687.202 592.148 703.767 582.712 720.41L543.475 789.48C534.693 805.133 524.456 824.524 514.742 839.393C510.685 842.466 447.449 841.061 437.194 841.002C432.669 838.726 419.767 821.879 415.664 816.992C440.583 816.809 465.573 816.673 490.484 816.327C493.033 816.292 498.539 816.109 499.947 814.085C507.328 803.475 514.453 789.314 520.738 778.063C537.889 747.51 555.347 717.13 573.109 686.928C579.723 675.447 595.238 645.633 603.607 636.844L603.96 636.48C589.724 635.807 571.446 636.28 556.872 636.271L468.717 636.209C454.531 636.195 435.322 636.707 421.695 635.711L420.941 634.071C422.114 627.868 430.138 612.274 434.572 608.446Z"/><path fill="#FEFEFE" d="M351.018 391.5C373.246 391.423 493.646 388.952 505.524 392.56C507.571 393.182 575.703 510.187 580.272 518.959L368.187 518.965C364.115 513.374 362.171 510.702 358.984 504.444C358.446 501.832 354.681 495.921 353.198 493.444C372.497 493.457 531.26 494.63 535.883 491.745C533.517 483.393 499.774 426.867 493.04 416.958C433.359 415.985 371.402 416.792 311.538 416.751C307.367 408.072 302.592 399.698 297.245 391.69L351.018 391.5Z"/><path fill="#FEFEFE" d="M366.587 440.5L437.824 440.277C447.796 440.247 467.306 439.627 476.168 440.963C480.688 443.269 490.931 462.159 493.422 467.376C489.683 469.803 458.899 468.815 452.5 468.779L378.905 468.845C369.489 468.853 349.023 469.458 340.6 468.13C340.03 467.406 325.746 442.669 325.622 442.282L326.874 441.014C332.919 439.809 358.505 440.474 366.587 440.5Z"/><path fill="#FEFEFE" d="M407.843 711.82C417.233 711.82 459.505 710.949 465.466 712.478C465.523 716.168 460.94 725.703 458.94 728.842C458.062 730.361 454.572 736.418 453.476 736.769C423.364 746.396 420.107 730.467 407.843 711.82Z"/><path fill="#F6F7F2" d="M1183.99 620.816C1211.31 620.79 1265.25 618.365 1289.62 626.229C1325.23 637.717 1348.35 682.621 1346.19 719.045C1344.39 749.411 1339.86 763.766 1319.42 787.589C1285.74 820.464 1226.81 813.807 1183.99 812.767L1183.99 620.816Z"/><path fill="#FEFEFE" d="M1232.68 641.463C1296.23 640.751 1327.41 669.435 1318.51 736.723C1316.03 755.524 1304.28 770.779 1288.82 781.276C1267.33 793.823 1233.79 792.726 1209.62 791.317L1209.62 642.027C1217.1 642.043 1225.16 641.674 1232.68 641.463Z"/><path fill="#F6F7F2" d="M1445.71 381.077L1493.19 381.077L1493.19 574.559L1445.78 574.559C1432.87 561.775 1431.44 553.366 1421.69 538.489C1403.67 511.457 1385.8 484.33 1368.08 457.109L1367.36 574.515L1320.49 574.559L1320.49 381.874C1329.97 381.846 1368.52 379.887 1373.01 387.238C1396.01 424.922 1421.1 461.232 1444.94 498.423L1445.71 381.077Z"/><path fill="#F6F7F2" d="M876.062 381.899C903.204 381.882 975.411 378.685 996.902 390.251C1010.17 397.525 1019.95 409.849 1024.01 424.428C1033.03 456.666 1016.86 488.479 984.229 497.796C995.599 520.464 1015.23 551.919 1028.52 574.542L994.5 574.559L974.263 574.557C965.75 559.485 957.382 544.333 949.158 529.102C944.733 521.013 938.86 509.464 933.694 502.149C930.721 500.688 926.52 501.134 923.018 501.177L923.018 574.559L876.062 574.557L876.062 381.899Z"/><path fill="#FEFEFE" d="M923.019 420.963C943.12 420.483 975.829 414.657 978.15 442.107C978.865 450.562 976.179 455.85 971.428 462.476C958.248 470.907 938.605 468.814 923.019 468.547L923.019 420.963Z"/><path fill="#F6F7F2" d="M753.074 379.441C773.099 379.596 787.337 379.963 805.35 389.92C828.492 402.714 839.802 418.166 847.336 442.866C831.237 443.208 808.98 444.298 793.365 443.493C781.917 423.591 760.11 419.522 739.238 426.319C727.529 430.063 717.864 438.44 712.494 449.499C705.195 464.274 705.836 484.81 710.689 500.58C719.509 529.24 750.894 539.688 777.818 530.574C793.2 525.368 799.33 515.057 806.11 501.177L747.361 500.622L747.361 465.816L768.5 465.816L849.872 465.816C849.844 492.804 853.405 518.517 835.064 538.943C815.377 562.844 791.759 574.352 760.708 575.937C630.994 582.556 618.207 385.51 753.074 379.441Z"/><path fill="#F6F7F2" d="M1732.93 620.816C1754.53 620.809 1798.26 618.697 1817.84 622.992C1875.99 635.746 1879.13 714.556 1817.6 732.696C1820.33 739.249 1829.76 754.058 1833.86 760.855L1865.19 812.658C1858.84 812.773 1836.92 813.894 1833.01 811.362C1823.64 795.012 1814.14 778.735 1804.52 762.533C1800.03 754.903 1792.04 742.213 1788.75 734.442L1758.46 734.442L1758.46 812.746L1732.93 812.746L1732.93 620.816Z"/><path fill="#FEFEFE" d="M1758.47 642.006C1764.32 642.028 1774.65 642.161 1779.95 641.742C1811.61 639.239 1839.61 645.351 1835.22 684.316C1834.25 692.917 1831.1 697.729 1825.46 704.615C1808.81 717.937 1780.14 714.149 1758.46 713.921L1758.47 642.006Z"/><path fill="#1A3E33" d="M1171.11 381.914C1210.54 381.385 1251.17 381.886 1290.7 381.876L1290.7 419.56L1218.89 419.56L1218.89 457.923L1282.05 457.923L1282.05 494.923L1219.54 494.923L1219.54 511.5L1219.54 536.077L1290.7 536.077L1290.7 574.56L1171.11 574.56L1171.11 381.914Z"/><path fill="#1A3E33" d="M1038.14 381.077L1156.98 381.077L1156.98 573.874L1038.14 573.874L1038.14 559.5L1038.14 535.336L1109.24 535.336L1109.24 497L1046.83 497L1046.83 460.816L1109.24 460.816L1109.24 419.561L1038.14 419.561L1038.14 381.077Z"/><path fill="#F6F7F2" d="M1453.67 619.345C1470.45 617.327 1491.72 620.367 1507.21 627.176C1528.92 636.87 1545.91 654.738 1554.52 676.895L1523.12 676.924C1522.44 675.635 1521.74 674.36 1521.01 673.101C1502.65 641.188 1460.49 633.548 1429.59 651.286C1393.54 671.972 1385.59 724.74 1406.66 758.946C1415.99 774.302 1431.13 785.227 1448.64 789.231C1484.66 797.36 1519.78 779.955 1529.61 742.933C1530.79 738.523 1531.7 734.025 1532.64 729.559L1495.5 729.559L1456.22 729.559L1456.22 708.924L1560.06 708.924C1560.24 737.453 1557.94 754.187 1540.58 777.866C1509.43 820.371 1445.83 826.269 1405.13 794.521C1363.34 761.916 1356.54 695.748 1389.34 654.537C1405.17 634.618 1428.36 621.929 1453.67 619.345Z"/><path fill="#F6F7F2" d="M1591.33 620.816L1695.13 620.816L1695.13 641.254L1617 641.254L1617 705.254L1686.74 705.254L1686.74 725.966L1617 725.966L1617 743.5L1617 791.254L1695.13 791.254L1695.13 812.746L1591.33 812.746L1591.33 620.816Z"/><path fill="#F6F7F2" d="M1042.49 620.816L1146.21 620.816L1146.21 641.254L1068.05 641.254L1068.05 705.254L1137.84 705.254L1137.84 725.966L1068.05 725.966L1068.05 743.5L1068.05 791.254L1146.21 791.254L1146.21 812.746L1042.49 812.746L1042.49 620.816Z"/><path fill="#F6F7F2" d="M923.827 620.816L949.265 620.816L949.265 792.034L1016.11 792.034L1016.11 812.746L923.827 812.746L923.827 620.816Z"/></svg>