<?xml version="1.0" encoding="utf-8" ?><svg xmlns="http://www.w3.org/2000/svg" xmlns:xlink="http://www.w3.org/1999/xlink" width="332" height="309" viewBox="0 0 332 309"><path fill="white" d="M108.005 12.1107C115.597 11.845 124.483 12.0702 132.164 12.0703L178.694 12.0716L224.803 12.0857C228.369 12.091 244.471 11.6167 246.833 12.5987C248.571 14.2365 252.413 21.4467 253.866 23.9669L265.458 44.0058L294.165 92.2691C296.699 96.4635 299.205 100.674 301.685 104.9C302.674 106.552 305.918 110.775 305.094 112.385C302.421 112.86 295.379 112.76 292.329 112.773L268.887 112.796L187.39 112.794C183.078 112.791 166.067 112.115 163.322 112.899C162.384 113.167 144.76 145.51 142.313 149.836C144.291 153.228 148.67 159.137 150.988 162.637C157.965 173.177 165.38 183.595 172.278 194.185C176.901 193.898 183.023 194.071 187.744 194.07L215.264 194.059L232.718 194.058C235.13 194.058 240.072 193.941 242.293 194.257C243.165 195.418 242.16 197.313 241.484 198.453C233.568 211.81 226.435 225.732 218.568 239.093C217.912 240.208 196.63 239.831 194.391 239.803C184.162 239.674 173.833 240.006 163.636 239.782C167.42 243.963 170.594 249.098 174.364 253.295C175.03 254.008 175.706 254.352 176.694 254.396C181.939 254.63 187.365 254.513 192.609 254.511L226.294 254.512C227.636 252.609 229.613 248.976 230.797 246.891L237.908 234.352L257.926 199.269C261.335 193.274 265.234 185.846 268.835 180.118C262.027 179.394 247.888 179.797 240.441 179.797L200.115 179.793C192.349 179.799 184.344 179.931 176.608 179.76C174.726 177.649 171.172 170.646 169.711 167.826C172.347 162.247 176.66 155.386 179.633 149.753C181.086 147 186.41 137.116 187.97 135.441C190.354 135.13 195.12 135.256 197.726 135.257L214.875 135.274L284.621 135.268L301.127 135.264C304.465 135.257 311.404 134.973 314.235 135.78C315.921 137.376 329.108 160.395 329.62 162.588C329.319 163.688 327.849 165.864 327.218 166.992C323.916 172.9 320.329 178.609 317.002 184.516C298.967 215.862 281.092 247.301 263.38 278.831C259.925 285.003 256.517 291.351 252.761 297.331C252.278 298.1 244.091 297.771 242.655 297.768L223.959 297.757L164.431 297.774L5.78301 297.713C4.53101 297.701 1.19864 297.896 0.360142 297.165C0.740758 295.829 46.0216 239.604 49.7943 234.92C45.8215 235.466 41.5055 235.113 37.4995 235.214C28.0717 235.453 18.0452 234.811 8.71232 235.123C14.4518 226.102 57.9058 160.699 57.8527 156.983C57.8418 156.225 57.3754 155.421 56.8002 154.946C56.128 154.39 55.3083 154.203 54.4632 154.12C50.0635 153.686 45.3642 154.081 40.9198 154.052C35.5965 154.017 30.1433 153.58 24.837 153.935C25.5173 151.546 28.3687 147.017 29.7275 144.644L38.125 130.043L67.5271 78.9817L93.5674 33.8315L101.206 20.5095C102.607 18.0598 104.071 15.4539 105.618 13.0886C106.153 12.2714 107.046 12.2464 108.005 12.1107ZM189.236 166.221C198.331 166.579 208.782 166.326 217.976 166.323L268.207 166.322C271.626 166.317 292.282 165.961 293.415 166.734C293.432 166.928 293.448 167.123 293.464 167.317C282.486 187.058 264.388 217.93 253.908 236.596L241.85 258.227C239.949 261.632 237.55 266.296 235.481 269.439C233.464 270.012 191.778 270.117 187.266 269.801C190.949 274.33 195.319 279.072 198.814 283.516C199.217 283.917 199.448 284.17 200.123 284.189C204.412 284.31 208.888 284.265 213.165 284.264L239.572 284.246L243.32 284.232C245.976 280.228 249.415 273.765 251.867 269.457L269.071 239.043L297.109 189.999C300.342 184.375 311.058 167.491 312.189 162.471C311.389 159.029 308.28 153.562 306.388 150.537L244.703 150.456C229.111 150.455 213.319 150.334 197.748 150.542C196.37 151.831 190.091 164.056 189.236 166.221ZM119.62 25.9046C121.968 29.416 125.902 36.4819 127.705 40.3226C135.871 40.073 144.898 40.2454 153.123 40.2458L198.662 40.2502L218.891 40.2491C221.629 40.2473 229.134 40.0684 231.406 40.6468C233.339 42.6796 255.656 80.7738 257.053 84.572C247.992 84.9019 238.504 84.781 229.401 84.7851L186.768 84.7848L162.669 84.7215C160.192 84.7071 153.777 84.8484 151.685 84.547C154.099 89.1915 157.198 94.3898 159.394 99.0189C164.04 98.8434 169.014 98.9254 173.687 98.9295L248.774 98.8587L270.089 98.8615C272.952 98.8618 279.046 98.702 281.694 99.0643C278.338 93.8037 274.686 87.251 271.431 81.7666L251.003 47.1291L243.288 33.9128C242.035 31.785 239.783 27.7113 238.25 26.052C233.359 25.6771 226.988 25.8351 222 25.8344L195.337 25.8392C171.426 25.846 146.949 25.5605 123.087 25.8754L119.62 25.9046ZM182.502 209.205C184.836 212.664 190.834 221.99 193.194 224.665C198.371 224.321 204.006 224.795 209.024 224.337C209.703 223.125 210.992 221.058 211.55 219.905C212.628 218.05 216.401 211.925 216.711 210.157C215.99 209.135 210.249 209.483 208.733 209.485L192.511 209.507C189.979 209.509 184.78 209.621 182.502 209.205ZM134.923 54.0102C138.1 59.1847 140.861 64.6932 144.042 69.9235L202.373 69.9125L221.94 69.8531C224.3 69.8529 229.457 69.732 231.5 69.9624L231.927 69.8421C231.504 68.4758 223.387 55.2588 222.363 54.1607C214.892 53.7892 205.635 54.0281 197.995 54.0297L154.282 54.0462C148.473 54.0489 140.577 54.2876 134.923 54.0102Z"/></svg>